<svg width="1024" height="1024" viewBox="0 0 1024 1024" fill="none" xmlns="http://www.w3.org/2000/svg">
  <defs>
    <!-- Oro tipo moneda -->
    <linearGradient id="gold" x1="0" y1="0" x2="0" y2="1">
      <stop offset="0%" stop-color="#FFD567"/>
      <stop offset="55%" stop-color="#F2C14E"/>
      <stop offset="100%" stop-color="#C9972E"/>
    </linearGradient>
    <linearGradient id="goldEdge" x1="0" y1="0" x2="0" y2="1">
      <stop offset="0%" stop-color="#C0881F"/>
      <stop offset="100%" stop-color="#8F6B1A"/>
    </linearGradient>
    <clipPath id="shieldClip">
      <!-- Escudo -->
      <path d="M512 48C512 48 357 120 192 152V576C192 780 353 904 512 976C671 904 832 780 832 576V152C667 120 512 48 512 48Z"/>
    </clipPath>
    <filter id="soft">
      <feGaussianBlur in="SourceAlpha" stdDeviation="2" result="blur"/>
      <feOffset dx="0" dy="2" result="off"/>
      <feMerge>
        <feMergeNode in="off"/>
        <feMergeNode in="SourceGraphic"/>
      </feMerge>
    </filter>
  </defs>

  <!-- Borde exterior del escudo -->
  <path d="M512 32C512 32 346 108 168 144V584C168 807 345 946 512 1016C679 946 856 807 856 584V144C678 108 512 32 512 32Z"
        fill="url(#goldEdge)"/>
  <path d="M512 48C512 48 357 120 192 152V576C192 780 353 904 512 976C671 904 832 780 832 576V152C667 120 512 48 512 48Z"
        fill="url(#gold)"/>

  <!-- Panel interno (púrpura) -->
  <g clip-path="url(#shieldClip)">
    <rect x="216" y="176" width="592" height="720" rx="8" fill="#2B2436"/>
    <!-- División curva para darle dinamismo -->
    <path d="M216 420C380 360 640 360 808 420V896H216V420Z" fill="#5B2CA5"/>
    <!-- Filete interior dorado -->
    <path d="M226 186V886H802V186C659 160 547 110 512 94C476 111 364 160 226 186Z" fill="none" stroke="#F2C14E" stroke-width="8"/>
  </g>

  <!-- Estrella y varita -->
  <g filter="url(#soft)">
    <path d="M708 474l14 32 34 6-28 20 8 34-28-20-28 20 8-34-28-20 34-6 14-32z" fill="#FFD567"/>
    <rect x="668" y="600" width="180" height="14" rx="7" transform="rotate(-25 668 600)" fill="#F2C14E"/>
  </g>

  <!-- Mago (silueta + alto contraste) -->
  <!-- Sombrero -->
  <path d="M316 610c86-70 234-86 378-64-22-56-66-110-142-142-84-36-190-22-254 24 62 4 120 26 145 52-56 -10 -126 22 -127 130z"
        fill="#2B2436" opacity=".5"/>
  <path d="M288 588c52-114 224-188 384-138 18 6 36 14 54 26-20 10-46 18-78 22-82 10-170 30-256 90-38 28-76 30-104 0z"
        fill="#5B2CA5"/>
  <path d="M606 403c-44-4-140 12-212 64-8 6-24 20-30 28 158-40 270-44 336-28-18-28-50-58-94-64z"
        fill="#3F237A"/>

  <!-- Cinta del sombrero -->
  <path d="M330 566c146-60 292-80 372-66l-12 40c-96-10-220 14-330 66l-30-40z" fill="#15131A"/>
  <rect x="556" y="528" width="56" height="44" rx="6" fill="url(#gold)"/>
  <rect x="570" y="540" width="28" height="22" fill="#15131A"/>

  <!-- Cara/barba alto-contraste -->
  <path d="M466 710c-18-50 18-104 78-122 42-12 86-4 116 18-30 18-52 44-64 76-12 30-40 48-72 48-22 0-44-8-58-20z"
        fill="#5B2CA5"/>
  <path d="M628 620c-40-10-96 18-116 58 26 6 52-2 70-18 16-14 26-28 46-40z" fill="#F2C14E"/>
  <path d="M520 732c18 18 56 24 86 10 24-10 40-30 48-54 6-20 24-42 40-54-22-10-48-18-74-18-86 0-154 66-152 116 16 4 34 6 52 0z"
        fill="#2B2436"/>

  <!-- Texto (superior e inferior) -->
  <g fill="#F2C14E" font-family="'Varsity', 'Anton', 'Impact', system-ui, sans-serif" font-weight="700" text-anchor="middle">
    <text x="512" y="290" font-size="120" letter-spacing="4">WIZARDS</text>
    <text x="512" y="902" font-size="110" letter-spacing="3">WISHLIST</text>
  </g>
</svg>